<svg width="39.000000" height="43.000000" viewBox="0 0 39 43" fill="none" xmlns="http://www.w3.org/2000/svg" xmlns:xlink="http://www.w3.org/1999/xlink">
	<desc>
			Created with Pixso.
	</desc>
	<defs/>
	<rect id="Abstract Line" width="39.000000" height="43.000000" fill="#FFFFFF" fill-opacity="0"/>
	<path id="Vector" d="M13.0488 40.1274C9.3252 39.0757 5.42578 38.5452 1.64355 38.0592C0.829102 37.9573 0.0732422 38.5259 0.0146484 39.3269C-0.101562 40.1286 0.480469 40.8617 1.2373 40.9636C4.90332 41.4314 8.68457 41.9321 12.2344 42.9445C12.9902 43.1641 13.8057 42.7121 14.0381 41.9344C14.2705 41.1574 13.8057 40.3476 13.0488 40.1274Z" fill="#262626" fill-opacity="1.000000" fill-rule="evenodd"/>
	<path id="Vector" d="M24.3369 25.2172C18.3438 19.0623 11.5938 13.6997 5.7168 7.37975C5.19336 6.7895 4.26172 6.75787 3.68066 7.30889C3.09863 7.86049 3.04004 8.78802 3.62207 9.37827C9.49902 15.7164 16.249 21.0966 22.2422 27.2696C22.8242 27.8458 23.7549 27.854 24.3369 27.2872C24.8604 26.7209 24.918 25.7934 24.3369 25.2172Z" fill="#262626" fill-opacity="1.000000" fill-rule="evenodd"/>
	<path id="Vector" d="M35.5674 1.5434C35.7422 5.06616 35.916 8.58891 36.0908 12.1123C36.0908 12.9192 36.7891 13.5422 37.6035 13.503C38.418 13.4632 39 12.7763 39 11.9688C38.8252 8.44019 38.6514 4.91216 38.4766 1.38413C38.418 0.577225 37.7197 -0.0417175 36.9053 0.00219727C36.1484 0.0461197 35.5088 0.737083 35.5674 1.5434Z" fill="#262626" fill-opacity="1.000000" fill-rule="evenodd"/>
</svg>
