<svg width="94.208008" height="34.000000" viewBox="0 0 94.208 34" fill="none" xmlns="http://www.w3.org/2000/svg" xmlns:xlink="http://www.w3.org/1999/xlink">
	<desc>
			Created with Pixso.
	</desc>
	<defs>
		<clipPath id="clip23_31891">
			<rect id="Logo" width="94.208336" height="34.000000" fill="white" fill-opacity="0"/>
		</clipPath>
	</defs>
	<rect id="Logo" width="94.208336" height="34.000000" fill="#FFFFFF" fill-opacity="0"/>
	<g clip-path="url(#clip23_31891)">
		<path id="Vector" d="M10.3662 4.25L0 4.25L0 29.0417L10.3662 4.25Z" fill="#4C4C4D" fill-opacity="1.000000" fill-rule="nonzero"/>
		<path id="Vector" d="M17.6602 4.25L28.0127 4.25L28.0127 29.0417L17.6602 4.25Z" fill="#4C4C4D" fill-opacity="1.000000" fill-rule="nonzero"/>
		<path id="Vector" d="M14.0127 13.3875L20.6113 29.0419L16.2822 29.0419L14.3105 24.0579L9.48145 24.0579L14.0127 13.3875Z" fill="#4C4C4D" fill-opacity="1.000000" fill-rule="nonzero"/>
		<path id="Vector" d="M44.9258 20.0146L46.1484 23.5197C46.1885 23.6074 46.25 23.6479 46.3574 23.6479L48.708 23.6479C48.8359 23.6479 48.8564 23.5872 48.8359 23.4589L43.9805 9.97235C43.96 9.86432 43.9404 9.84406 43.832 9.84406L40.9141 9.84406C40.834 9.84406 40.7861 9.90485 40.7861 9.99261C40.7461 10.7017 40.6846 10.9178 40.5967 11.1272L36.2686 23.4386C36.248 23.5872 36.2949 23.6479 36.417 23.6479L38.5166 23.6479C38.6455 23.6479 38.7061 23.6074 38.7539 23.4791L39.9082 20.0146L44.9258 20.0146ZM40.5771 17.7253C41.2119 15.8073 42.0488 13.3491 42.3867 11.9443L42.4072 11.9443C42.8262 13.4166 43.8115 16.334 44.2578 17.7253L40.5771 17.7253Z" fill="#4C4C4D" fill-opacity="1.000000" fill-rule="nonzero"/>
		<path id="Vector" d="M55.0791 23.8567C56.3418 23.8567 57.6855 23.6271 59.0498 23.0396C59.1582 22.999 59.1777 22.9517 59.1777 22.8505C59.1377 22.4722 59.0908 21.9252 59.0908 21.5065L59.0908 8.81018C59.0908 8.72913 59.0908 8.6886 58.9893 8.6886L56.6992 8.6886C56.6123 8.6886 56.5713 8.72913 56.5713 8.83716L56.5713 13.1391C56.2139 13.0986 55.9639 13.0783 55.666 13.0783C51.9727 13.0783 49.7031 15.5163 49.7031 18.5621C49.7031 22.0941 52.0332 23.8567 55.0791 23.8567ZM56.5713 21.5065C56.1934 21.6281 55.7744 21.6754 55.3486 21.6754C53.6738 21.6754 52.3027 20.7299 52.3027 18.4337C52.3027 16.4009 53.7148 15.1989 55.585 15.1989C55.9639 15.1989 56.2939 15.2394 56.5713 15.3474L56.5713 21.5065Z" fill="#4C4C4D" fill-opacity="1.000000" fill-rule="nonzero"/>
		<path id="Vector" d="M66.4795 13.0793C63.3262 13.0793 61.374 15.4971 61.374 18.4821C61.374 21.1497 62.9277 23.8577 66.4326 23.8577C69.3975 23.8577 71.4775 21.6764 71.4775 18.4145C71.4775 15.5376 69.7148 13.0793 66.4795 13.0793ZM66.3516 15.1999C68.1338 15.1999 68.8906 16.7329 68.8906 18.4821C68.8906 20.6431 67.7764 21.7169 66.4795 21.7169C64.8789 21.7169 63.9336 20.373 63.9336 18.4348C63.9336 16.4425 64.9395 15.1999 66.3516 15.1999Z" fill="#4C4C4D" fill-opacity="1.000000" fill-rule="nonzero"/>
		<path id="Vector" d="M73.8447 8.6886C73.7568 8.6886 73.6963 8.72913 73.6963 8.83716L73.6963 23.2084C73.6963 23.2692 73.7568 23.3772 73.8447 23.3975C74.8516 23.7081 75.9043 23.8567 76.9922 23.8567C80.1055 23.8567 83.1309 21.9252 83.1309 18.0353C83.1309 15.2191 81.1992 13.0783 78.1738 13.0783C77.4785 13.0783 76.8301 13.1863 76.2627 13.3754L76.2354 8.85742C76.2354 8.70886 76.1953 8.6886 76.0469 8.6886L73.8447 8.6886ZM80.5439 18.2919C80.5439 20.6218 78.9502 21.7159 77.2285 21.7159C76.8701 21.7159 76.5527 21.6956 76.2627 21.6078L76.2627 15.4758C76.5938 15.3474 76.9922 15.2394 77.7285 15.2394C79.3896 15.2394 80.5439 16.2929 80.5439 18.2919Z" fill="#4C4C4D" fill-opacity="1.000000" fill-rule="nonzero"/>
		<path id="Vector" d="M91.6758 19.0493C92.7021 19.0493 93.5459 19.0291 93.8359 18.9615C93.9443 18.9413 93.9854 18.9008 94.0049 18.813C94.0664 18.5834 94.0928 18.1039 94.0928 17.5163C94.0928 15.5173 92.8906 13.0793 89.7842 13.0793C86.6104 13.0793 84.8477 15.6659 84.8477 18.5834C84.8477 21.1699 86.2119 23.8577 90.0342 23.8577C91.4658 23.8577 92.3916 23.6281 93.1885 23.2499C93.2695 23.2094 93.3096 23.1419 93.3096 23.0203L93.3096 21.2712C93.3096 21.1699 93.249 21.1497 93.1885 21.1902C92.3916 21.5278 91.5264 21.6967 90.5811 21.6967C88.4404 21.6967 87.4678 20.5148 87.4072 19.0493L91.6758 19.0493ZM87.4072 17.2394C87.5762 16.2129 88.2246 15.0986 89.6768 15.0986C91.2773 15.0986 91.6953 16.4425 91.6953 17.0504C91.6953 17.0706 91.6953 17.1584 91.6953 17.2192C91.6074 17.2394 91.3379 17.2394 90.541 17.2394L87.4072 17.2394Z" fill="#4C4C4D" fill-opacity="1.000000" fill-rule="nonzero"/>
	</g>
</svg>
