<svg width="77.916992" height="34.000000" viewBox="0 0 77.917 34" fill="none" xmlns="http://www.w3.org/2000/svg" xmlns:xlink="http://www.w3.org/1999/xlink">
	<desc>
			Created with Pixso.
	</desc>
	<defs>
		<clipPath id="clip23_31887">
			<rect id="Logo" width="77.916641" height="34.000000" fill="white" fill-opacity="0"/>
		</clipPath>
	</defs>
	<rect id="Logo" width="77.916641" height="34.000000" fill="#FFFFFF" fill-opacity="0"/>
	<g clip-path="url(#clip23_31887)">
		<path id="Vector" d="M44.7578 24.4567C46.2207 24.2831 49.4219 23.9033 49.9932 24.6353C50.5703 25.3742 49.3525 28.4133 48.8086 29.7717L48.8076 29.7742C48.6426 30.186 48.9971 30.3515 49.3682 30.0409C51.7891 28.0184 52.4102 23.781 51.917 23.1699C51.4248 22.5621 47.1973 22.0388 44.6211 23.8519C44.2227 24.1288 44.29 24.5137 44.7324 24.4597L44.7578 24.4567ZM31.4531 31.8743C37.0781 31.8743 43.6113 30.1016 48.1191 26.7792C48.8652 26.2255 48.2266 25.4017 47.4639 25.7258C42.4131 27.8698 36.9189 28.903 31.9258 28.903C24.5215 28.903 17.3525 26.8738 11.5557 23.5007C11.0488 23.2036 10.6709 23.7236 11.0928 24.1051C16.4648 28.957 23.5654 31.8743 31.4531 31.8743Z" fill="#4C4C4D" fill-opacity="1.000000" fill-rule="evenodd"/>
		<path id="Vector" d="M8.92676 22.0732C9.10547 22.1678 9.33496 22.1577 9.49316 22.0158L9.5 22.0226C9.97949 21.5972 10.8506 20.8375 11.3408 20.4289C11.5361 20.2668 11.5029 20.0068 11.3477 19.7908C10.9082 19.183 10.4424 18.6901 10.4424 17.5657L10.4424 13.8246C10.4424 13.6968 10.4434 13.5699 10.4434 13.4438C10.4521 12.0085 10.459 10.6978 9.38574 9.69525C8.46387 8.81061 6.9375 8.5 5.76953 8.5C3.4873 8.5 0.9375 9.35083 0.400391 12.1735C0.34668 12.4741 0.5625 12.6328 0.758789 12.6766L3.08887 12.9265C3.30469 12.9164 3.46289 12.7037 3.50391 12.4875C3.70312 11.5151 4.52051 11.0458 5.43555 11.0458C5.92773 11.0458 6.48828 11.2281 6.78223 11.6705C7.08203 12.1129 7.07812 12.702 7.07324 13.2307C7.07324 13.2911 7.07227 13.3508 7.07227 13.4093L7.07227 13.72C5.68164 13.8787 3.86133 13.9799 2.55859 14.554C1.05566 15.2022 -0.000976562 16.5291 -0.000976562 18.4774C-0.000976562 20.9725 1.57227 22.2184 3.5918 22.2184C5.2998 22.2184 6.23145 21.8166 7.54883 20.4728C7.9873 21.1042 8.12988 21.4114 8.92676 22.0732ZM40.9648 22.0158C40.8066 22.1577 40.5771 22.1678 40.3984 22.0732C39.6016 21.4114 39.4561 21.1042 39.0205 20.4728C37.7041 21.8167 36.7686 22.2184 35.0635 22.2184C33.041 22.2184 31.4707 20.9725 31.4707 18.4774C31.4707 16.5291 32.5244 15.2022 34.0303 14.554C35.333 13.9799 37.1533 13.8787 38.5439 13.72L38.5439 13.4093C38.5439 13.3512 38.5449 13.2921 38.5449 13.2321C38.5498 12.7031 38.5537 12.1132 38.251 11.6705C37.96 11.2281 37.3994 11.0458 36.9033 11.0458C35.9883 11.0458 35.1748 11.5151 34.9756 12.4875C34.9346 12.7037 34.7764 12.9164 34.5566 12.9265L32.2305 12.6766C32.0342 12.6328 31.8154 12.4741 31.8721 12.1735C32.4062 9.35089 34.959 8.5 37.2412 8.5C38.4092 8.5 39.9355 8.81061 40.8574 9.69525C41.9316 10.6978 41.9238 12.0085 41.915 13.4438C41.915 13.5699 41.9141 13.6968 41.9141 13.8246L41.9141 17.5657C41.9141 18.6901 42.3799 19.183 42.8193 19.7908C42.9707 20.0068 43.0049 20.2668 42.8086 20.4289C42.3193 20.8375 41.4482 21.5972 40.9688 22.0226L40.9648 22.0158ZM13.6504 22.0496L16.0508 22.0496C16.3076 22.0496 16.5127 21.8504 16.5127 21.6039L16.5127 15.0739C16.5127 15.0228 16.5127 14.9709 16.5127 14.9185C16.5107 13.5101 16.5078 11.6772 18.1709 11.6772C19.7021 11.6772 19.6758 13.3079 19.6543 14.6357C19.6523 14.7867 19.6494 14.9337 19.6494 15.0739L19.6533 21.6039C19.6533 21.8403 19.8428 22.0327 20.085 22.0496L22.4824 22.0496C22.7393 22.0496 22.9453 21.8504 22.9453 21.6039L22.9453 15.0739C22.9453 15.0194 22.9453 14.9628 22.9453 14.9044C22.9434 14.2153 22.9404 13.2866 23.168 12.7138C23.415 12.0925 24.0225 11.7042 24.6035 11.7042C25.2988 11.7042 25.8359 11.9372 26.0146 12.7645C26.1064 13.1613 26.0938 14.0787 26.0859 14.6927C26.084 14.8415 26.082 14.9725 26.082 15.0739L26.082 21.6039C26.082 21.8403 26.2744 22.0327 26.5137 22.0496L28.9111 22.0496C29.168 22.0496 29.374 21.8504 29.374 21.6039L29.377 13.828C29.377 13.6383 29.3809 13.4448 29.3838 13.2494C29.4033 12.0848 29.4238 10.853 28.7725 9.96539C28.1006 9.03351 27 8.61823 25.9941 8.61823C24.5791 8.61823 23.2588 9.34412 22.6787 10.9006C22.0029 9.34412 21.0645 8.61823 19.5625 8.61823C18.083 8.61823 16.9863 9.34412 16.4014 10.9006L16.3574 10.9006L16.3574 9.2901C16.3408 9.06726 16.1553 8.88831 15.9219 8.87817L13.6836 8.87817C13.4268 8.87817 13.2207 9.07404 13.2207 9.3205L13.2207 21.6411C13.2383 21.8605 13.4199 22.0327 13.6504 22.0496ZM60.4199 8.61823C63.9824 8.61823 65.9102 11.6772 65.9102 15.5669C65.9102 19.3248 63.7793 22.3062 60.4199 22.3062C56.9219 22.3062 55.0176 19.2472 55.0176 15.4352C55.0176 11.5996 56.9453 8.61823 60.4199 8.61823ZM68.1387 22.0496L70.5293 22.0496C70.7861 22.0496 70.9951 21.8504 70.998 21.6039L70.998 14.9692C70.998 14.1387 71.042 13.3891 71.3799 12.6362C71.6465 12.0419 72.1836 11.6502 72.7676 11.6502C74.2979 11.6502 74.2832 13.3299 74.2725 14.6479C74.2715 14.7579 74.2705 14.8655 74.2705 14.9692L74.2705 21.6613C74.2939 21.8707 74.4766 22.0327 74.6953 22.0496L77.1035 22.0496C77.3398 22.0496 77.5391 21.8774 77.5654 21.6613L77.5654 13.9057C77.5654 12.7138 77.5654 11.056 76.9375 10.0701C76.2627 9.00647 75.2119 8.61823 74.1348 8.61823C72.4775 8.61823 71.5352 9.42181 70.8633 11.1066L70.8193 11.1066L70.8193 9.2226C70.7725 9.03015 70.6006 8.88831 70.3906 8.87817L68.166 8.87817C67.9229 8.87817 67.7236 9.05377 67.7031 9.27997L67.7061 21.6039C67.7061 21.8403 67.8994 22.0327 68.1387 22.0496ZM44.835 11.0526L44.835 9.2901C44.835 9.02338 45.0371 8.84442 45.2803 8.84442L53.1709 8.84442C53.4238 8.84442 53.627 9.02673 53.627 9.2901L53.627 10.7993C53.623 11.0526 53.4111 11.3835 53.0322 11.9068L48.9434 17.7446C50.4629 17.7075 52.0674 17.9337 53.4443 18.7103C53.7549 18.8859 53.8398 19.1425 53.8633 19.3957L53.8633 21.2764C53.8633 21.533 53.5791 21.8335 53.2822 21.6782C50.8545 20.4053 47.6299 20.2668 44.9463 21.6917C44.6729 21.8403 44.3857 21.5432 44.3857 21.2865L44.3857 19.5004C44.3857 19.2134 44.3887 18.7238 44.6758 18.2883L49.4131 11.4949L45.29 11.4949C45.0371 11.4949 44.835 11.3159 44.835 11.0526ZM60.4404 11.1336C58.6709 11.1336 58.5596 13.5444 58.5596 15.0469L58.5596 15.1022C58.5596 16.6299 58.5586 19.7672 60.4199 19.7672C62.2803 19.7672 62.3682 17.1741 62.3682 15.5939C62.3682 14.554 62.3242 13.3114 62.0107 12.3255C61.7402 11.4679 61.2031 11.1336 60.4404 11.1336ZM7.07227 16.292C7.07227 16.2498 7.07227 16.2073 7.07227 16.1645L7.07227 15.6445C5.33691 15.6445 3.50391 16.0159 3.50391 18.062C3.50391 19.0986 4.04102 19.8009 4.96191 19.8009C5.6377 19.8009 6.24219 19.3856 6.62402 18.7103C7.07422 17.9177 7.07422 17.1713 7.07227 16.292ZM38.5439 16.1645C38.5439 16.2073 38.5439 16.2498 38.5449 16.292C38.5459 17.1713 38.5459 17.9177 38.0957 18.7103C37.7139 19.3856 37.1064 19.8009 36.4346 19.8009C35.5127 19.8009 34.9717 19.0986 34.9717 18.062C34.9717 16.0159 36.8057 15.6445 38.5439 15.6445L38.5439 16.1645Z" fill="#4C4C4D" fill-opacity="1.000000" fill-rule="evenodd"/>
	</g>
</svg>
