<svg width="78.628906" height="21.250000" viewBox="0 0 78.6289 21.25" fill="none" xmlns="http://www.w3.org/2000/svg" xmlns:xlink="http://www.w3.org/1999/xlink">
	<desc>
			Created with Pixso.
	</desc>
	<defs/>
	<path id="Vector" d="M10.8115 19.8803C9.62891 20.088 8.42578 20.1503 7.18066 20.3161L3.38281 9.19318L3.38281 20.7935C2.19922 20.918 1.12109 21.084 0 21.25L0 0L3.1543 0L7.4707 12.0571L7.4707 0L10.8115 0L10.8115 19.8803ZM17.3486 7.78198C18.6357 7.78198 20.6064 7.71973 21.79 7.71973L21.79 11.04C20.3164 11.04 18.5938 11.04 17.3486 11.1022L17.3486 16.0413C19.2998 15.9168 21.25 15.7506 23.2217 15.6884L23.2217 18.884L14.0283 19.6105L14.0283 0L23.2217 0L23.2217 3.32031L17.3486 3.32031L17.3486 7.78198ZM35.5684 3.32037L32.124 3.32037L32.124 18.5938C31.0029 18.5938 29.8828 18.5938 28.8037 18.6352L28.8037 3.32037L25.3594 3.32037L25.3594 0L35.5693 0L35.5684 3.32037ZM40.9639 7.55377L45.5088 7.55377L45.5088 10.874L40.9639 10.874L40.9639 18.407L37.7061 18.407L37.7061 0L46.9824 0L46.9824 3.32031L40.9639 3.32031L40.9639 7.55377ZM52.3779 15.5017C54.2666 15.5431 56.1758 15.6886 58.0225 15.7922L58.0225 19.071C55.0547 18.8842 52.0869 18.6976 49.0576 18.6352L49.0576 0L52.3779 0L52.3779 15.5017ZM60.8242 19.2993C61.8818 19.3617 63.0029 19.424 64.082 19.5483L64.082 0L60.8242 0L60.8242 19.2993ZM78.6289 0L74.416 10.1062L78.6289 21.25C77.3838 21.084 76.1387 20.8557 74.8936 20.6481L72.5078 14.5057L70.0791 20.1503C68.876 19.9426 67.7139 19.8803 66.5098 19.7143L70.7852 9.98163L66.9248 0L70.4941 0L72.6729 5.58228L74.998 0L78.6289 0L78.6289 0Z" fill="#4C4C4D" fill-opacity="1.000000" fill-rule="nonzero"/>
</svg>
