<svg width="91.052734" height="24.402039" viewBox="0 0 91.0527 24.402" fill="none" xmlns="http://www.w3.org/2000/svg" xmlns:xlink="http://www.w3.org/1999/xlink">
	<desc>
			Created with Pixso.
	</desc>
	<defs/>
	<path id="Vector" d="M15.0469 0.057251L1.47852 1.04626C0.389648 1.14355 0 1.84076 0 2.70001L0 17.5028C0 18.1676 0.244141 18.735 0.8125 19.4971L4.01367 23.6315C4.5332 24.2963 5.00488 24.4421 6.01172 24.3935L21.7578 23.437C23.0898 23.3397 23.4639 22.7235 23.4639 21.6859L23.4639 5.03479C23.4639 4.46729 23.2197 4.32135 22.5049 3.80255L18.1826 0.77063C17.1426 0.00860596 16.7041 -0.0886841 15.0469 0.057251ZM6.33984 4.755C5.06152 4.84314 4.77734 4.86273 4.0459 4.27277L2.19336 2.81354C1.99902 2.63519 2.0957 2.39197 2.56738 2.34332L15.5996 1.38678C16.6875 1.28949 17.2725 1.67859 17.6953 2.00287L19.9375 3.60797C20.0352 3.64044 20.2793 3.93225 19.9863 3.93225L6.51562 4.74292C6.45508 4.74707 6.39648 4.7511 6.33984 4.755ZM66.8594 5.44952C66.8594 6.30652 66.1514 7.00769 65.2852 7.00769C64.4189 7.00769 63.7109 6.30652 63.7109 5.44952C63.7109 4.56659 64.4189 3.86542 65.2852 3.86542C66.1514 3.86542 66.8594 4.56659 66.8594 5.44952ZM31.8291 10.0721L31.8291 20.3819L29.2051 20.3819L29.2051 5.24176L31.5674 5.24176L39.0713 15.5256L39.2549 15.5256L39.2549 5.24176L41.8789 5.24176L41.8789 20.3819L39.5176 20.3819L32.0127 10.0721L31.8291 10.0721ZM4.8584 21.54L4.8584 7.40192C4.8584 6.78583 5.05371 6.49396 5.62207 6.44531L21.0918 5.53735C21.6113 5.48871 21.8555 5.82922 21.8555 6.44531L21.8555 20.4861C21.8555 21.1022 21.7578 21.621 20.8965 21.6697L6.09375 22.529C5.23242 22.5776 4.8584 22.302 4.8584 21.54ZM57.2822 8.98138L57.2822 6.09875L59.9062 6.09875L59.9062 8.98138L62.3984 8.98138L62.3984 11.0589L59.9062 11.0589L59.9062 16.6943C59.9062 17.8369 60.4043 18.3303 61.5068 18.3303C61.874 18.3303 62.084 18.3043 62.3984 18.2784L62.3984 20.304C62.0049 20.3819 61.5068 20.4338 61.0078 20.4338C58.3311 20.4338 57.2822 19.5509 57.2822 17.3175L57.2822 11.0589L55.4453 11.0589L55.4453 8.98138L57.2822 8.98138ZM19.0439 9.0719C19.4668 9.02325 19.5645 8.58551 19.4668 8.16394L16.2002 8.34229C15.7295 8.39093 15.3389 8.78003 15.4365 9.29889L16.6719 9.44482L16.6719 15.9788L11.8135 8.58551L8.28711 8.82867C7.62109 8.87732 7.37695 9.49341 7.47461 9.91498L8.66113 10.0123L8.66113 19.3511L7.7998 19.5944C7.47461 19.6917 7.37695 20.1618 7.47461 20.3564L10.7568 20.1618C11.9434 20.1618 11.9434 19.3025 11.9434 19.3025L10.4648 18.9783L10.4648 11.9092L15.1279 19.2214C15.6963 19.9348 15.8916 20.178 16.6553 20.178C17.1426 20.178 17.7119 19.9835 18.3291 19.6592L18.3291 9.21783L19.0439 9.0719ZM54.8945 14.6427C54.8945 18.3823 52.7686 20.6156 49.3047 20.6156C45.8418 20.6156 43.7422 18.3823 43.7158 14.6427C43.7158 10.9291 45.8672 8.66974 49.3047 8.66974C52.7686 8.66974 54.8945 10.9291 54.8945 14.6427ZM79.376 14.6427C79.376 18.3823 77.25 20.6156 73.7871 20.6156C70.2969 20.6156 68.1973 18.3823 68.1973 14.6427C68.1973 10.9291 70.3496 8.66974 73.7871 8.66974C77.25 8.66974 79.376 10.9291 79.376 14.6427ZM83.5479 20.3819L80.9238 20.3819C80.9238 20.3819 80.9238 8.9035 80.8975 8.90344L83.4434 8.90344L83.4434 10.7473L83.627 10.7473C84.1777 9.44879 85.332 8.66974 87.0645 8.66974C89.6357 8.66974 91.0527 10.2019 91.0527 12.9547L91.0527 20.3819L88.4287 20.3819L88.4287 13.5779C88.4287 11.838 87.6934 10.955 86.0928 10.955C84.5449 10.955 83.5479 12.0198 83.5479 13.7078L83.5479 20.3819ZM66.5967 20.3819L63.9727 20.3819L63.9727 8.90344L66.5967 8.90344L66.5967 20.3819ZM46.4189 14.6427C46.4189 17.0578 47.4678 18.4342 49.3047 18.4342C51.1416 18.4342 52.1914 17.0578 52.1914 14.6427C52.1914 12.2535 51.1416 10.8511 49.3047 10.8511C47.4678 10.8511 46.4189 12.2535 46.4189 14.6427ZM70.9004 14.6427C70.9004 17.0578 71.9502 18.4342 73.7871 18.4342C75.5977 18.4342 76.6465 17.0578 76.6729 14.6427C76.6729 12.2535 75.5977 10.8511 73.7871 10.8511C71.9502 10.8511 70.9004 12.2535 70.9004 14.6427Z" fill="#4C4C4D" fill-opacity="1.000000" fill-rule="evenodd"/>
</svg>
