<svg width="99.193359" height="29.750000" viewBox="0 0 99.1934 29.75" fill="none" xmlns="http://www.w3.org/2000/svg" xmlns:xlink="http://www.w3.org/1999/xlink">
	<desc>
			Created with Pixso.
	</desc>
	<defs/>
	<path id="Vector" d="M14.875 0C6.66016 0 0 6.65985 0 14.8751C0 23.0906 6.66016 29.75 14.875 29.75C23.0918 29.75 29.751 23.0906 29.751 14.8751C29.751 6.6604 23.0918 0.000732422 14.875 0.000732422L14.875 0ZM21.6973 21.4542C21.4307 21.8911 20.8584 22.0297 20.4219 21.7615C16.9287 19.6281 12.5322 19.145 7.35449 20.328C6.85547 20.4417 6.3584 20.129 6.24414 19.6299C6.12988 19.1307 6.44141 18.6334 6.94141 18.5197C12.6084 17.2252 17.4688 17.7825 21.3896 20.1788C21.8262 20.447 21.9648 21.0172 21.6973 21.4542ZM23.5176 17.4038C23.1816 17.9495 22.4678 18.1218 21.9229 17.7861C17.9238 15.3284 11.8291 14.6166 7.09961 16.0522C6.48633 16.2375 5.83887 15.8918 5.65234 15.2795C5.46777 14.6662 5.81348 14.0197 6.42578 13.8331C11.8281 12.194 18.5439 12.988 23.1357 15.8096C23.6807 16.1453 23.8535 16.8594 23.5176 17.404L23.5176 17.4038ZM23.6738 13.1862C18.8799 10.3386 10.9697 10.0768 6.39258 11.466C5.65723 11.689 4.87988 11.274 4.65723 10.5389C4.43457 9.80359 4.84961 9.02679 5.58496 8.80334C10.8389 7.20825 19.5742 7.51642 25.0938 10.7932C25.7568 11.1855 25.9736 12.0394 25.5811 12.6996C25.1895 13.3608 24.334 13.5787 23.6748 13.1862L23.6738 13.1862ZM40.4707 13.7319C37.9023 13.1194 37.4453 12.6895 37.4453 11.7863C37.4453 10.9329 38.249 10.3586 39.4443 10.3586C40.6025 10.3586 41.75 10.7947 42.9541 11.6925C42.9893 11.7197 43.0361 11.7305 43.0801 11.7234C43.126 11.7167 43.165 11.692 43.1924 11.6548L44.4463 9.88708C44.498 9.81421 44.4834 9.71387 44.4141 9.65826C42.9805 8.50848 41.3682 7.94946 39.4814 7.94946C36.709 7.94946 34.7705 9.61371 34.7705 11.9948C34.7705 14.5483 36.4424 15.4524 39.3301 16.1503C41.7871 16.7164 42.2021 17.1907 42.2021 18.0383C42.2021 18.978 41.3643 19.5624 40.0146 19.5624C38.5146 19.5624 37.291 19.0562 35.9238 17.8731C35.8896 17.843 35.8438 17.8305 35.8008 17.8323C35.7549 17.8358 35.7139 17.8571 35.6855 17.8909L34.2783 19.5641C34.2197 19.6352 34.2266 19.7382 34.2949 19.7986C35.8857 21.2197 37.8438 21.9693 39.957 21.9693C42.9453 21.9693 44.876 20.3369 44.876 17.8092C44.8809 15.6764 43.6045 14.4951 40.4756 13.7342L40.4707 13.7319ZM51.6367 11.1989C50.3418 11.1989 49.2793 11.709 48.4023 12.7544L48.4023 11.5778C48.4023 11.4849 48.3271 11.4092 48.2354 11.4092L45.9346 11.4092C45.8418 11.4092 45.7676 11.4849 45.7676 11.5778L45.7676 24.6515C45.7676 24.7438 45.8418 24.8203 45.9346 24.8203L48.2354 24.8203C48.3271 24.8203 48.4023 24.7438 48.4023 24.6515L48.4023 20.5251C49.2793 21.5074 50.3418 21.9888 51.6367 21.9888C54.043 21.9888 56.4805 20.1361 56.4805 16.5944C56.4844 13.0519 54.0469 11.1987 51.6387 11.1987L51.6367 11.1989ZM53.8057 16.5944C53.8057 18.3972 52.6953 19.6566 51.1035 19.6566C49.5312 19.6566 48.3447 18.3403 48.3447 16.5944C48.3447 14.8483 49.5312 13.5324 51.1035 13.5324C52.6689 13.5322 53.8057 14.8196 53.8057 16.5942L53.8057 16.5944ZM62.7246 11.1989C59.625 11.1989 57.1963 13.5855 57.1963 16.6329C57.1963 19.6476 59.6084 22.0084 62.6865 22.0084C65.7969 22.0084 68.2324 19.6299 68.2324 16.5944C68.2324 13.5692 65.8135 11.1992 62.7246 11.1992L62.7246 11.1989ZM62.7246 19.6743C61.0762 19.6743 59.832 18.3492 59.832 16.5935C59.832 14.8298 61.0332 13.55 62.6865 13.55C64.3457 13.55 65.5967 14.8746 65.5967 16.632C65.5967 18.3954 64.3887 19.6743 62.7246 19.6743ZM74.8506 11.4092L72.3193 11.4092L72.3193 8.82184C72.3193 8.72906 72.2451 8.65344 72.1523 8.65344L69.8525 8.65344C69.7598 8.65344 69.6836 8.72906 69.6836 8.82184L69.6836 11.4092L68.5791 11.4092C68.4863 11.4092 68.4121 11.4849 68.4121 11.5778L68.4121 13.5543C68.4121 13.647 68.4863 13.7228 68.5791 13.7228L69.6836 13.7228L69.6836 18.8376C69.6836 20.9035 70.7119 21.9515 72.7422 21.9515C73.5664 21.9515 74.251 21.781 74.8955 21.415C74.9482 21.3867 74.9805 21.3298 74.9805 21.2694L74.9805 19.3865C74.9805 19.3297 74.9502 19.2747 74.9004 19.2444C74.8506 19.2125 74.7891 19.2107 74.7373 19.2373C74.2949 19.4594 73.8672 19.5624 73.3877 19.5624C72.6504 19.5624 72.3193 19.2267 72.3193 18.4771L72.3193 13.7237L74.8506 13.7237C74.9434 13.7237 75.0176 13.648 75.0176 13.5551L75.0176 11.5788C75.0215 11.4859 74.9473 11.4102 74.8525 11.4102L74.8506 11.4092ZM83.6689 11.4193L83.6689 11.1015C83.6689 10.1666 84.0273 9.74976 84.8301 9.74976C85.3096 9.74976 85.6953 9.84497 86.127 9.98883C86.1807 10.0056 86.2354 9.99719 86.2783 9.96539C86.3223 9.93359 86.3477 9.88263 86.3477 9.82861L86.3477 7.89069C86.3477 7.81659 86.3008 7.75104 86.2285 7.72919C85.7734 7.59369 85.1904 7.45459 84.3174 7.45459C82.1943 7.45459 81.0703 8.65076 81.0703 10.9125L81.0703 11.3992L79.9648 11.3992C79.873 11.3992 79.7959 11.4749 79.7959 11.5676L79.7959 13.5543C79.7959 13.647 79.873 13.7228 79.9648 13.7228L81.0703 13.7228L81.0703 21.6105C81.0703 21.7046 81.1465 21.7792 81.2383 21.7792L83.5371 21.7792C83.6309 21.7792 83.7061 21.7046 83.7061 21.6105L83.7061 13.7233L85.8535 13.7233L89.1436 21.6105C88.7705 22.4382 88.4023 22.6034 87.9014 22.6034C87.4961 22.6034 87.0684 22.4826 86.6328 22.2428C86.5928 22.2215 86.543 22.218 86.5 22.2304C86.4561 22.2464 86.418 22.2783 86.4004 22.321L85.6211 24.0316C85.583 24.1133 85.6152 24.2074 85.6934 24.2501C86.5068 24.6906 87.2402 24.8788 88.1484 24.8788C89.8467 24.8788 90.7861 24.0866 91.6123 21.9586L95.6016 11.6495C95.623 11.5977 95.6162 11.539 95.584 11.493C95.5537 11.4474 95.502 11.4198 95.4473 11.4198L93.0527 11.4198C92.9795 11.4198 92.916 11.4655 92.8926 11.5328L90.4395 18.5375L87.7539 11.5282C87.7295 11.463 87.667 11.4198 87.5977 11.4198L83.6689 11.4198L83.6689 11.4193ZM78.5566 11.4092L76.2559 11.4092C76.1641 11.4092 76.0869 11.4849 76.0869 11.5778L76.0869 21.6105C76.0869 21.7046 76.1641 21.7792 76.2559 21.7792L78.5566 21.7792C78.6484 21.7792 78.7256 21.7046 78.7256 21.6105L78.7256 11.5784C78.7256 11.4855 78.6504 11.4099 78.5566 11.4099L78.5566 11.4092ZM77.4199 6.8407C76.5088 6.8407 75.7695 7.57825 75.7695 8.48932C75.7695 9.40088 76.5088 10.1393 77.4199 10.1393C78.3311 10.1393 79.0684 9.40088 79.0684 8.48932C79.0684 7.57843 78.3291 6.8407 77.4199 6.8407ZM97.5664 14.6351C96.6572 14.6351 95.9482 13.9042 95.9482 13.0165C95.9482 12.1289 96.666 11.3896 97.5752 11.3896C98.4844 11.3896 99.1934 12.1204 99.1934 13.0073C99.1934 13.8949 98.4756 14.6351 97.5664 14.6351ZM97.5752 11.5505C96.7461 11.5505 96.1191 12.2096 96.1191 13.0165C96.1191 13.8232 96.7422 14.4733 97.5664 14.4733C98.3955 14.4733 99.0225 13.8148 99.0225 13.0073C99.0225 12.2007 98.3994 11.5505 97.5752 11.5505ZM97.9336 13.1738L98.3926 13.8146L98.0049 13.8146L97.5928 13.2267L97.2393 13.2267L97.2393 13.8146L96.916 13.8146L96.916 12.1158L97.6729 12.1158C98.0693 12.1158 98.3281 12.3177 98.3281 12.6577C98.3301 12.9363 98.1689 13.1064 97.9355 13.1738L97.9336 13.1738ZM97.6602 12.4073L97.2393 12.4073L97.2393 12.9446L97.6602 12.9446C97.8701 12.9446 97.9961 12.8417 97.9961 12.6757C97.9961 12.5009 97.8701 12.4073 97.6602 12.4073Z" fill="#4C4C4D" fill-opacity="1.000000" fill-rule="nonzero"/>
</svg>
