<svg width="67.433594" height="30.856323" viewBox="0 0 67.4336 30.8563" fill="none" xmlns="http://www.w3.org/2000/svg" xmlns:xlink="http://www.w3.org/1999/xlink">
	<desc>
			Created with Pixso.
	</desc>
	<defs/>
	<path id="Vector" d="M42.917 3.57581L45.4199 3.57581C45.4648 3.8067 45.4795 4.0451 45.4863 4.28351L45.4863 4.29095C45.4863 4.5368 45.4648 4.77515 45.4268 5.0061L42.9238 5.0061L44.6973 6.77911C44.5635 6.98022 44.4062 7.159 44.2354 7.33038C44.0635 7.49426 43.8779 7.6507 43.6836 7.79224L41.9111 6.01923L41.9111 8.52228C41.6797 8.55951 41.4414 8.58191 41.1963 8.58191L41.1885 8.58191C40.9424 8.58191 40.7041 8.55951 40.4736 8.52228L40.4736 6.01923L38.7002 7.79224C38.3057 7.50916 37.9629 7.16644 37.6875 6.77911L39.46 5.0061L36.957 5.0061C36.9199 4.77515 36.8975 4.5368 36.8975 4.29095C36.8975 4.0451 36.957 3.57581 36.957 3.57581L39.46 3.57581L37.6797 1.8028C37.8213 1.60162 37.9697 1.42285 38.1416 1.25153C38.3125 1.08765 38.499 0.931213 38.6924 0.789673L40.4658 2.56262L40.4658 0.0595703C40.6963 0.0223389 40.9355 0 41.1807 0L41.1885 0C41.4346 0 41.6729 0.0223389 41.9033 0.0595703L41.9033 2.56262L43.6768 0.789673C43.8779 0.923767 44.0566 1.0802 44.2275 1.25153C44.3916 1.42285 44.5479 1.60913 44.6895 1.8028L42.917 3.57581ZM42.0977 5.20721C42.2012 4.92413 42.2607 4.61871 42.2607 4.2984C42.2607 3.97058 42.2012 3.66516 42.0977 3.38208C41.8145 3.27783 41.5088 3.2182 41.1885 3.2182C40.8682 3.2182 40.5625 3.27783 40.2793 3.38208C40.1748 3.66516 40.1152 3.97058 40.1152 4.29095L40.1152 4.2984C40.1152 4.61871 40.1748 4.92413 40.2793 5.20721C40.5625 5.31152 40.8682 5.37115 41.1885 5.37115C41.5088 5.37115 41.8145 5.31152 42.0977 5.20721ZM48.4893 18.6462C48.5264 20.0915 48.8984 21.1567 49.6143 21.8272C50.3291 22.4977 51.3867 22.8329 52.7803 22.8329C54.002 22.8329 55.1709 22.6169 56.2734 22.1848C56.415 22.4456 56.5273 22.7584 56.6094 23.1309C56.6982 23.5034 56.7432 23.8684 56.7656 24.2334C56.1992 24.4718 55.5732 24.6581 54.8887 24.7772C54.21 24.8964 53.4502 24.9561 52.624 24.9561C51.417 24.9561 50.3809 24.7847 49.5176 24.4495C48.6533 24.1143 47.9453 23.6375 47.3867 23.0266C46.8281 22.4157 46.418 21.6931 46.1572 20.8513C45.8965 20.017 45.7695 19.1007 45.7695 18.095C45.7695 17.1116 45.8965 16.1954 46.1426 15.3387C46.3887 14.482 46.7754 13.7444 47.29 13.1113C47.8037 12.4855 48.459 11.9789 49.2412 11.6139C50.0234 11.2414 50.9551 11.0552 52.0205 11.0552C52.9365 11.0552 53.7334 11.2116 54.4268 11.5245C55.1191 11.8374 55.6924 12.262 56.1621 12.8058C56.624 13.3496 56.9814 13.9977 57.2197 14.7427C57.458 15.4951 57.585 16.3071 57.585 17.1862C57.585 17.4246 57.5771 17.6852 57.5547 17.946C57.54 18.2142 57.5176 18.4451 57.5029 18.6313L48.4893 18.6313L48.4893 18.6462ZM20.1436 15.9047C20.1436 14.884 19.8828 14.1838 19.3691 13.7815C18.8545 13.3867 18.1025 13.1855 17.1191 13.1855C16.5156 13.1855 15.9492 13.2302 15.4277 13.3271C14.8994 13.424 14.3926 13.5432 13.8857 13.6996C13.5586 13.1334 13.3945 12.4481 13.3945 11.6584C13.9824 11.4722 14.623 11.3232 15.3311 11.2189C16.0391 11.1146 16.7168 11.0624 17.3721 11.0624C19.0928 11.0624 20.4043 11.4573 21.3057 12.2394C22.1992 13.0217 22.6543 14.2806 22.6543 16.0015L22.6543 24.3003C22.0508 24.4344 21.3203 24.5834 20.4561 24.7249C19.5928 24.8739 18.7129 24.9409 17.8193 24.9409C16.9775 24.9409 16.21 24.8665 15.5322 24.71C14.8545 24.5536 14.2734 24.3077 13.7969 23.9576C13.3203 23.6149 12.9551 23.1754 12.6943 22.639C12.4336 22.1027 12.3066 21.4545 12.3066 20.7021C12.3066 19.9647 12.4561 19.3091 12.7607 18.7504C13.0596 18.1917 13.4688 17.7224 13.9902 17.3573Q14.7617 16.7986 15.7783 16.5304C16.4482 16.3516 17.1562 16.2548 17.9014 16.2548C18.4521 16.2548 18.9072 16.2697 19.2568 16.292C19.6074 16.3144 19.9053 16.3516 20.1514 16.3814L20.1514 15.9047L20.1436 15.9047ZM25.4473 11.3832C25.6191 11.3459 25.7979 11.3236 25.9766 11.3087Q26.2451 11.2863 26.5352 11.2863C26.707 11.2863 26.8857 11.2938 27.0791 11.3087C27.2656 11.3236 27.4512 11.3534 27.623 11.3832C27.6377 11.4204 27.6602 11.5247 27.6904 11.7035C27.7119 11.8823 27.7422 12.076 27.7646 12.2846C27.7871 12.4932 27.8164 12.6868 27.8389 12.8806C27.8613 13.0742 27.876 13.1934 27.876 13.2455C28.0479 12.9699 28.2559 12.7018 28.4941 12.441C28.7324 12.1803 29.0234 11.9493 29.3584 11.7408C29.6943 11.5322 30.0742 11.3683 30.498 11.2491C30.9229 11.1299 31.3926 11.0703 31.9062 11.0703C32.6807 11.0703 33.4033 11.197 34.0664 11.4577C34.7295 11.7184 35.2959 12.1132 35.7725 12.657C36.249 13.2009 36.6143 13.8937 36.8828 14.728C37.1514 15.5624 37.2852 16.5532 37.2852 17.6929C37.2852 19.9725 36.667 21.7529 35.4375 23.0343C34.2012 24.3156 32.458 24.9637 30.2002 24.9637C29.8203 24.9637 29.4336 24.9413 29.0381 24.8892C28.6436 24.8371 28.293 24.77 28.0029 24.6806L28.0029 30.7595C27.7939 30.7967 27.5781 30.819 27.3398 30.834C27.1094 30.8489 26.8926 30.8563 26.707 30.8563C26.5205 30.8563 26.3047 30.8489 26.0732 30.834C25.8428 30.819 25.626 30.7892 25.4404 30.7595L25.4404 11.3832L25.4473 11.3832ZM60.416 11.3826C60.6025 11.3454 60.7881 11.323 60.96 11.3081C61.1309 11.2932 61.3096 11.2858 61.5039 11.2858C61.6895 11.2858 61.8838 11.2932 62.0693 11.3081C62.2559 11.323 62.4346 11.3528 62.584 11.3826C62.6357 11.6434 62.6875 11.9786 62.7402 12.4032C62.792 12.8278 62.8145 13.1854 62.8145 13.476C63.1797 12.8875 63.6562 12.3809 64.252 11.9488C64.8486 11.5167 65.6084 11.3007 66.5391 11.3007C66.6807 11.3007 66.8223 11.3081 66.9639 11.3156C67.1133 11.323 67.2324 11.338 67.3369 11.3528C67.374 11.5093 67.3965 11.6732 67.4111 11.8445C67.4258 12.0158 67.4336 12.1946 67.4336 12.3883C67.4336 12.5969 67.418 12.8129 67.3965 13.0364C67.374 13.2599 67.3369 13.476 67.3066 13.6845C67.165 13.6473 67.0234 13.6324 66.8818 13.6324L66.5322 13.6324C66.0703 13.6324 65.623 13.6995 65.1982 13.826C64.7734 13.9527 64.3936 14.1837 64.0586 14.5114C63.7236 14.8392 63.4551 15.2862 63.2539 15.8598C63.0527 16.426 62.9561 17.1635 62.9561 18.0574L62.9561 24.6503C62.7695 24.6875 62.5537 24.7098 62.3232 24.7248C62.0918 24.7397 61.876 24.7471 61.6895 24.7471C61.5039 24.7471 61.2871 24.7397 61.0566 24.7248C60.8252 24.7098 60.6025 24.6801 60.3936 24.6503L60.3936 11.3826L60.416 11.3826ZM0 24.2852L6.98047 13.4238L0.827148 13.4238C0.774414 13.1109 0.751953 12.7682 0.751953 12.3883C0.751953 12.0233 0.774414 11.688 0.827148 11.3826L10.7871 11.3826L10.9141 11.7178L3.88086 22.6016L10.4736 22.6016C10.5264 22.9443 10.5488 23.3019 10.5488 23.6595C10.5488 24.0021 10.5264 24.33 10.4736 24.6428L0.126953 24.6428L0 24.2852ZM40.4736 13.394L38.79 13.394C38.7529 13.2524 38.7305 13.096 38.7148 12.9172C38.7002 12.7385 38.6934 12.5596 38.6934 12.3883C38.6934 12.217 38.7002 12.0382 38.7148 11.8594C38.7305 11.6806 38.7598 11.5167 38.79 11.3826L42.9834 11.3826L42.9834 24.6503C42.7979 24.6875 42.582 24.7098 42.3506 24.7248C42.1201 24.7397 41.9033 24.7471 41.7178 24.7471C41.5459 24.7471 41.3447 24.7397 41.1064 24.7248C40.876 24.7098 40.6592 24.6801 40.4736 24.6503L40.4736 13.394ZM55.0596 16.7318C55.0596 16.2475 54.9922 15.7856 54.8662 15.3461C54.7393 14.9066 54.5459 14.5267 54.2998 14.1989C54.0469 13.8711 53.7334 13.6104 53.3457 13.4092C52.959 13.2081 52.4971 13.1113 51.9609 13.1113C50.9102 13.1113 50.1055 13.4316 49.5391 14.0648C48.9805 14.7054 48.6377 15.5919 48.5186 16.7318L55.0596 16.7318ZM28.0107 22.4756C28.3379 22.5947 28.6729 22.6841 29.0156 22.7363C29.3584 22.7885 29.8057 22.8108 30.3643 22.8108C30.9824 22.8108 31.5566 22.7139 32.0703 22.5128C32.584 22.3116 33.0312 22.0062 33.4033 21.5965C33.7764 21.1793 34.0664 20.6579 34.2832 20.0321C34.499 19.4064 34.6035 18.6539 34.6035 17.7972Q34.6035 15.73 33.8438 14.512C33.3369 13.7 32.502 13.2977 31.3477 13.2977C30.916 13.2977 30.5059 13.3722 30.1035 13.5286C29.709 13.6851 29.3516 13.916 29.0459 14.2289C28.7324 14.5418 28.4873 14.9292 28.293 15.4059C28.0996 15.8827 28.0107 16.4414 28.0107 17.097L28.0107 22.4756ZM20.1436 18.4152C19.8828 18.3779 19.5547 18.3481 19.1602 18.3109C18.7656 18.2736 18.4307 18.2587 18.1543 18.2587C17.082 18.2587 16.2695 18.4598 15.7109 18.8547C15.1523 19.2495 14.8691 19.8529 14.8691 20.6649C14.8691 21.1789 14.9658 21.5886 15.1523 21.8792C15.3389 22.1697 15.5771 22.3932 15.8604 22.5496C16.1436 22.7061 16.4561 22.8029 16.8066 22.8327C17.1484 22.87 17.4766 22.8849 17.79 22.8849C18.1846 22.8849 18.5938 22.8625 19.0186 22.8178C19.4434 22.7731 19.8154 22.7135 20.1436 22.6241L20.1436 18.4152Z" fill="#4C4C4D" fill-opacity="1.000000" fill-rule="evenodd"/>
</svg>
