<svg width="69.344727" height="15.583313" viewBox="0 0 69.3447 15.5833" fill="none" xmlns="http://www.w3.org/2000/svg" xmlns:xlink="http://www.w3.org/1999/xlink">
	<desc>
			Created with Pixso.
	</desc>
	<defs/>
	<path id="Vector" d="M56.459 4.67303C56.7246 5.13037 56.8115 5.6507 56.8398 6.23566L56.877 7.01526L56.877 12.4672L56.916 13.2476C56.9932 14.5223 57.9326 15.4647 59.2168 15.5449L59.9932 15.5833L59.9932 7.01526L60.0322 6.23566C60.0635 5.65723 60.1494 5.12708 60.4189 4.6665C60.6934 4.19409 61.0869 3.80212 61.5605 3.52997C62.0342 3.25781 62.5713 3.11511 63.1172 3.11609C63.6641 3.11707 64.2002 3.26178 64.6729 3.53564C65.1455 3.80951 65.5381 4.20288 65.8105 4.67633C66.0752 5.13361 66.1582 5.66376 66.1895 6.23566L66.2285 7.01282L66.2285 12.4672L66.2666 13.2476C66.3467 14.5288 67.2793 15.4713 68.5684 15.5449L69.3447 15.5833L69.3447 6.23566C69.3447 4.5827 68.6885 2.99744 67.5195 1.82837C66.3506 0.659363 64.7656 0.00231934 63.1133 0.00164795C62.2285 0.000732422 61.3535 0.188599 60.5469 0.552734C59.7412 0.91687 59.0215 1.44885 58.4375 2.11316C57.8525 1.4491 57.1338 0.917236 56.3271 0.552979C55.5215 0.188782 54.6465 0.000488281 53.7617 0.000793457C52.4678 0.000793457 51.2666 0.393494 50.2715 1.07172C49.665 0.394348 48.3066 0.000793457 47.5273 0.000793457L47.5273 15.5833L48.3066 15.5449C49.6113 15.459 50.5537 14.5419 50.6045 13.2476L50.6455 12.4672L50.6455 7.01526L50.6846 6.23566C50.7168 5.6474 50.7988 5.13037 51.0645 4.66974C51.3389 4.19763 51.7324 3.80579 52.2061 3.53326C52.6797 3.2608 53.2158 3.11725 53.7617 3.117C54.3086 3.11713 54.8457 3.26093 55.3193 3.53406C55.792 3.80719 56.1855 4.19995 56.459 4.67303ZM3.11621 15.5457L3.89551 15.5833L15.582 15.5833L15.5439 14.8062C15.4385 13.525 14.5312 12.5891 13.2461 12.5056L12.4668 12.4672L5.45508 12.4672L14.8027 3.11615L14.7646 2.33978C14.7041 1.04553 13.7578 0.110474 12.4668 0.0392456L11.6865 0.00408936L0 0.000793457L0.0380859 0.780457C0.140625 2.04938 1.06152 3.00494 2.33594 3.07855L3.11621 3.117L10.127 3.117L0.779297 12.468L0.818359 13.2476C0.894531 14.532 1.82227 15.4623 3.11621 15.5449L3.11621 15.5457ZM44.4688 2.28168C45.1924 3.00519 45.7656 3.86414 46.1572 4.80945C46.5488 5.75476 46.751 6.76801 46.751 7.79126C46.751 8.81451 46.5488 9.82776 46.1572 10.7731C45.7656 11.7184 45.1924 12.5773 44.4688 13.3008C43.0059 14.7616 41.0244 15.5822 38.957 15.5822C36.8906 15.5822 34.9082 14.7616 33.4463 13.3008C30.4043 10.2582 30.4043 5.32428 33.4463 2.28168C34.1699 1.55847 35.0283 0.984741 35.9727 0.593262C36.917 0.201721 37.9297 0.000183105 38.9521 0C39.9766 -0.000732422 40.9912 0.2005 41.9375 0.592163C42.8838 0.983826 43.7441 1.55823 44.4688 2.28253L44.4688 2.28168ZM42.2637 4.48816C43.1396 5.36517 43.6318 6.55426 43.6318 7.79413C43.6318 9.03394 43.1396 10.2231 42.2637 11.1001C41.3867 11.9764 40.1973 12.4688 38.957 12.4688C37.7178 12.4688 36.5283 11.9764 35.6514 11.1001C34.7754 10.2231 34.2832 9.03394 34.2832 7.79413C34.2832 6.55426 34.7754 5.36517 35.6514 4.48816C36.5283 3.61176 37.7178 3.11951 38.957 3.11951C40.1973 3.11951 41.3867 3.61176 42.2637 4.48816ZM22.6006 0C23.623 0.000244141 24.6357 0.201965 25.5801 0.593628C26.5254 0.985229 27.3828 1.55914 28.1064 2.28253C31.1494 5.32428 31.1494 10.2591 28.1064 13.3008C26.6445 14.7616 24.6621 15.5822 22.5957 15.5822C20.5283 15.5822 18.5469 14.7616 17.085 13.3008C14.042 10.2582 14.042 5.32428 17.085 2.28168C17.8076 1.55847 18.666 0.984741 19.6104 0.593262C20.5557 0.201721 21.5674 0.000183105 22.5908 0L22.6006 0ZM25.9014 4.48651C26.7783 5.36359 27.2705 6.55286 27.2705 7.79291C27.2705 9.03296 26.7783 10.2222 25.9014 11.0993C25.0244 11.9756 23.835 12.468 22.5957 12.468C21.3555 12.468 20.166 11.9756 19.2891 11.0993C18.4131 10.2222 17.9209 9.03314 17.9209 7.79333C17.9209 6.55347 18.4131 5.36438 19.2891 4.4873C20.166 3.61096 21.3555 3.11865 22.5957 3.11865C23.835 3.11865 25.0244 3.61096 25.9014 4.4873L25.9014 4.48651Z" fill="#4C4C4D" fill-opacity="1.000000" fill-rule="evenodd"/>
</svg>
